<svg xmlns="http://www.w3.org/2000/svg" viewBox="0 0 640 330" role="img" aria-labelledby="title desc">
  <title id="title">YMG logo</title>
  <desc id="desc">Mountain inspired YMG construction and mining logo.</desc>
  <defs>
    <linearGradient id="stone" x1="80" x2="540" y1="60" y2="250" gradientUnits="userSpaceOnUse">
      <stop stop-color="#d9dedb"/>
      <stop offset=".35" stop-color="#7e8b8d"/>
      <stop offset=".7" stop-color="#263438"/>
      <stop offset="1" stop-color="#0c2937"/>
    </linearGradient>
    <linearGradient id="blue" x1="80" x2="570" y1="140" y2="270" gradientUnits="userSpaceOnUse">
      <stop stop-color="#0b5367"/>
      <stop offset=".55" stop-color="#063347"/>
      <stop offset="1" stop-color="#0a2433"/>
    </linearGradient>
    <linearGradient id="edge" x1="110" x2="560" y1="90" y2="280" gradientUnits="userSpaceOnUse">
      <stop stop-color="#ffffff"/>
      <stop offset=".45" stop-color="#f6f7f5"/>
      <stop offset="1" stop-color="#d7dbd8"/>
    </linearGradient>
    <filter id="shadow" x="-10%" y="-10%" width="120%" height="130%" color-interpolation-filters="sRGB">
      <feDropShadow dx="0" dy="10" stdDeviation="10" flood-color="#06111b" flood-opacity=".24"/>
    </filter>
  </defs>
  <g filter="url(#shadow)">
    <path fill="url(#stone)" d="M83 143 170 45l66 86 88-119 105 133 52-60 96 121-93-26-24 73-62-89-38 41-40-50-84 81-64-86-67 94z"/>
    <path fill="#eef2ef" d="m116 150 55-62 67 87 85-117 104 132 52-60 43 54-49-16-22 41-58-80-33 39-38-48-86 85-64-84-45 67z"/>
    <path fill="url(#blue)" d="m146 156 27-34 63 84 86-85 39 48 34-39 73 104-41 12-66-79-35 44-36-35-54 61-64-85-32 47z"/>
    <path fill="#a3aaa8" opacity=".72" d="m214 75 22 56 86-119-42 108 42 1-86 85-41-55z"/>
    <path fill="#eef2ef" d="m314 105 44-56 59 78-58-37-38 31z"/>
    <path fill="#283137" d="m430 100 24-27 27 35-28-15-22 32z"/>
  </g>
  <g fill="none" stroke="url(#edge)" stroke-linejoin="round" stroke-width="24">
    <path d="M57 155h54l67 112 58-112 86 112 84-112h88"/>
    <path d="M494 155h82v40h-58c-38 0-66 27-66 62s28 61 66 61h58v-47h-64"/>
  </g>
  <g fill="url(#blue)" stroke="#071d2a" stroke-linejoin="round" stroke-width="7">
    <path d="M58 155h50l71 119 60-119h48L184 322h-35z"/>
    <path d="M238 155h47l63 86 63-86h47v167h-55V238l-55 68-55-68v84h-55z"/>
    <path d="M494 155h82v39h-59c-36 0-62 26-62 63 0 36 26 61 62 61h59v-47h-66v-38h112v89H516c-69 0-119-44-119-105 0-62 50-108 120-108h105z"/>
  </g>
  <g fill="#ffffff" opacity=".75">
    <path d="m103 177 40 68-25-12-37-56z"/>
    <path d="m263 180 81 110-31-18-49-66z"/>
    <path d="m431 177-16 51-14 17v-67z"/>
    <path d="M527 180h78l-10 19h-69z"/>
  </g>
</svg>
